# xmcd
#
# Track frame offsets:
# 150
# 24111
# 47147
# 79599
# 97026
# 115253
# 141859
# 173276
# 191446
# 216052
#
# Disc length: 3249 seconds
#
#
# Revision: 0
# Processed by: cddbd v1.5.2PL0 Copyright (c) Steve Scherf et al.
# Submitted via: FreeRIP 2.90 
#
DISCID=770caf0a
DTITLE=Luke de Held e The lucky band - Luke de Held
DYEAR=1900
DGENRE=Blues
TTITLE0=Dreams
TTITLE1=Just me and my guitar (Part II)
TTITLE2=Since you ve been gone
TTITLE3=Big fat mama
TTITLE4=Thank you lord
TTITLE5=Brother well
TTITLE6=The redland son
TTITLE7=I ll play my blues
TTITLE8=A new age is coming
TTITLE9=The brightest star in the sky
EXTD=
EXTT0=
EXTT1=
EXTT2=
EXTT3=
EXTT4=
EXTT5=
EXTT6=
EXTT7=
EXTT8=
EXTT9=
PLAYORDER=
